<?xml version="1.0" encoding="utf-8"?>
<!-- Generator: Adobe Illustrator 22.1.0, SVG Export Plug-In . SVG Version: 6.00 Build 0)  -->
<svg version="1.1" id="Layer_1" xmlns="http://www.w3.org/2000/svg" xmlns:xlink="http://www.w3.org/1999/xlink" x="0px" y="0px"
	 viewBox="0 0 1540.7 212.7" style="enable-background:new 0 0 1540.7 212.7;" xml:space="preserve">
<polygon points="105.1,9.9 0,210.1 34.4,210.1 139.6,9.9 "/>
<polygon points="174,9.9 68.8,210.1 103.3,210.1 208.4,9.9 "/>
<polygon points="242.8,9.9 137.7,210.1 172.1,210.1 277.3,9.9 "/>
<polygon points="311.7,9.9 206.5,210.1 241,210.1 346.1,9.9 "/>
<polygon points="380.5,9.9 275.4,210.1 309.8,210.1 414.9,9.9 "/>
<g>
	<path d="M798.4,128.4c24.5-9.2,39.2-29.5,39.2-56.4c0-37.4-27.9-62.2-70.1-62.2h-108v200.2h33.2V134v-28.2V38.3h73
		c22.4,0,37.4,13.4,37.4,33.7c0,20-14.8,33.7-37.4,33.7h-55l15.5,28.2h39.6l41.9,76.1h35.6L798.4,128.4z"/>
</g>
<g>
	<path d="M608.1,190.1l-14.8-22.3l-0.8-1.7c-16.9,10.2-37.4,17.1-54.6,17.1c-47.8,0-77.6-29.5-77.6-73.5c0-43.7,29.5-73,77.1-73
		c18,0,38.7,7,55.2,17.2l0.7-1.5l14.8-22.3c-17.6-14-47-22.9-74.6-22.9c-65.1,0-108.7,40.8-108.7,102.2
		c0,61.9,43.5,103.3,108.7,103.3c26.7,0,56.3-8.9,74.9-22.7L608.1,190.1z"/>
</g>
<path d="M660.3,10.4"/>
<polygon points="1301.6,38.3 1301.6,9.9 1135.4,9.9 1135.4,210.1 1168.6,210.1 1168.6,126.8 1290.7,126.8 1290.7,98.6 1168.6,98.6 
	1168.6,98.7 1168.6,38.3 "/>
<polygon points="1540.7,9.9 1458.7,9.9 1348.3,9.9 1348.3,38.3 1425.7,38.3 1425.7,210.1 1458.7,210.1 1458.7,38.1 1540.7,38.1 "/>
<g>
	<path d="M1036,167.1l22.5,42.9h34.4L982.6,0L872.3,210.1h34.4l22.5-42.9H1036z M944.2,138.7l38.4-73.4l38.4,73.4H944.2z"/>
</g>
</svg>
